<?xml version="1.0" encoding="utf-8"?>
<!-- Generated by IcoMoon.io -->
<!DOCTYPE svg PUBLIC "-//W3C//DTD SVG 1.1//EN" "http://www.w3.org/Graphics/SVG/1.1/DTD/svg11.dtd">
<svg version="1.1" xmlns="http://www.w3.org/2000/svg" xmlns:xlink="http://www.w3.org/1999/xlink" width="38" height="32" viewBox="0 0 38 32">
<path d="M36.352 5.129c-1.255 0.569-2.615 0.965-4.035 1.138 1.453-0.892 2.56-2.305 3.093-3.988-1.359 0.826-2.864 1.426-4.474 1.748-1.273-1.395-3.103-2.271-5.121-2.271-3.876 0-7.022 3.225-7.022 7.198 0 0.569 0.063 1.114 0.179 1.642-5.843-0.302-11.014-3.164-14.485-7.524-0.606 1.061-0.951 2.303-0.951 3.623 0 2.497 1.244 4.704 3.125 5.988-1.151-0.031-2.226-0.363-3.176-0.9v0.088c0 3.491 2.424 6.404 5.631 7.071-0.587 0.159-1.212 0.243-1.848 0.243-0.451 0-0.888-0.041-1.328-0.126 0.898 2.86 3.489 4.937 6.563 5.002-2.405 1.928-5.437 3.075-8.727 3.075-0.565 0-1.12-0.033-1.673-0.096 3.115 2.046 6.804 3.232 10.774 3.232 12.916 0 19.983-10.97 19.983-20.482l-0.022-0.934c1.381-1.016 2.571-2.281 3.513-3.729v0z"></path>
</svg>
