<?xml version="1.0" encoding="utf-8"?>
<!-- Generated by IcoMoon.io -->
<!DOCTYPE svg PUBLIC "-//W3C//DTD SVG 1.1//EN" "http://www.w3.org/Graphics/SVG/1.1/DTD/svg11.dtd">
<svg version="1.1" xmlns="http://www.w3.org/2000/svg" xmlns:xlink="http://www.w3.org/1999/xlink" width="26" height="32" viewBox="0 0 26 32">
<path d="M22.028 23.386h-1.714l0.009-1.020c0-0.452 0.363-0.824 0.806-0.824h0.111c0.443 0 0.808 0.372 0.808 0.824l-0.020 1.020zM15.601 21.199c-0.434 0-0.79 0.302-0.79 0.667v4.961c0 0.366 0.356 0.665 0.79 0.665 0.438 0 0.793-0.298 0.793-0.665v-4.961c0-0.365-0.356-0.667-0.793-0.667v0zM26.038 18.425v9.438c0 2.264-1.916 4.117-4.257 4.117h-17.501c-2.343 0-4.257-1.853-4.257-4.117v-9.438c0-2.264 1.914-4.116 4.257-4.116h17.501c2.341 0 4.257 1.851 4.257 4.116v0zM5.447 28.887v-9.94h2.17v-1.473l-5.785-0.009v1.448l1.807 0.005v9.969h1.809zM11.95 20.427h-1.809v5.309c0 0.768 0.045 1.151-0.002 1.287-0.148 0.411-0.808 0.849-1.067 0.045-0.043-0.141-0.005-0.567-0.005-1.296l-0.007-5.345h-1.798l0.005 5.261c0.002 0.806-0.020 1.408 0.005 1.682 0.045 0.483 0.029 1.045 0.465 1.365 0.815 0.602 2.375-0.089 2.765-0.949l-0.004 1.097 1.453 0.002v-8.458h-0.002zM17.737 26.506l-0.004-4.42c-0.002-1.682-1.231-2.691-2.899-1.33l0.007-3.285-1.807 0.004-0.007 11.339 1.485-0.023 0.134-0.708c1.9 1.787 3.094 0.563 3.090-1.578v0zM23.399 25.92l-1.356 0.009c-0.002 0.054-0.004 0.118-0.004 0.188v0.776c0 0.415-0.334 0.752-0.742 0.752h-0.266c-0.406 0-0.742-0.338-0.742-0.752v-2.041h3.106v-1.199c0-0.874-0.021-1.75-0.091-2.252-0.223-1.583-2.391-1.835-3.487-1.024-0.345 0.254-0.606 0.593-0.76 1.049-0.154 0.454-0.231 1.076-0.231 1.868v2.634c0 4.38 5.19 3.76 4.571-0.007v0zM16.441 11.618c0.093 0.231 0.238 0.42 0.436 0.563 0.193 0.139 0.441 0.209 0.74 0.209 0.261 0 0.491-0.072 0.692-0.22 0.2-0.15 0.37-0.37 0.508-0.665l-0.034 0.727h2.016v-8.791h-1.587v6.841c0 0.372-0.297 0.674-0.661 0.674-0.363 0-0.661-0.302-0.661-0.674v-6.841h-1.655v5.93c0 0.754 0.012 1.258 0.034 1.514 0.023 0.252 0.080 0.497 0.173 0.733v0zM10.331 6.652c0-0.844 0.070-1.501 0.206-1.977s0.384-0.854 0.742-1.142c0.356-0.288 0.811-0.432 1.365-0.432 0.466 0 0.867 0.095 1.199 0.279 0.338 0.184 0.595 0.424 0.774 0.72 0.184 0.297 0.307 0.602 0.375 0.915 0.066 0.318 0.1 0.795 0.1 1.44v2.223c0 0.815-0.032 1.415-0.093 1.796-0.063 0.381-0.193 0.736-0.399 1.067-0.202 0.331-0.461 0.575-0.776 0.731-0.318 0.159-0.683 0.236-1.094 0.236-0.459 0-0.847-0.064-1.165-0.202-0.32-0.132-0.568-0.338-0.743-0.609-0.179-0.27-0.304-0.6-0.381-0.983-0.075-0.386-0.111-0.965-0.111-1.733v-2.329zM11.909 10.144c0 0.499 0.363 0.904 0.802 0.904 0.441 0 0.799-0.406 0.799-0.904v-4.679c0-0.497-0.357-0.902-0.799-0.902-0.44 0-0.802 0.406-0.802 0.902v4.679zM6.33 12.506h1.903l0.002-6.741 2.246-5.774h-2.080l-1.196 4.287-1.21-4.3h-2.061l2.393 5.79 0.002 6.737z"></path>
</svg>
