<?xml version="1.0" encoding="utf-8"?>
<!-- Generator: Adobe Illustrator 20.0.0, SVG Export Plug-In . SVG Version: 6.00 Build 0)  -->
<svg version="1.1" id="Layer_1" xmlns="http://www.w3.org/2000/svg" xmlns:xlink="http://www.w3.org/1999/xlink" x="0px" y="0px"
	 width="188px" height="80px" viewBox="0 0 188 80" style="enable-background:new 0 0 188 80;" xml:space="preserve">
<style type="text/css">
	.st0{fill:#E9004C;}
</style>
<g>
	<path class="st0" d="M105,1.6c24.4,0,39.5,16.9,41.2,19.1c0.3,0.4,0.3,0.8,0,1.1c-0.3,0.3-0.8,0.3-1.2,0
		c-1-0.9-16.4-14.6-40.1-14.6C81.3,7.2,66,20.9,64.9,21.7c-0.3,0.3-0.9,0.3-1.2,0c-0.3-0.3-0.3-0.8,0-1.1
		C65.5,18.4,80.6,1.6,105,1.6z"/>
	<g>
		<path class="st0" d="M79.2,37.5c-0.1-1.6-0.5-7.3-5.4-7.3c-4.8,0-5.1,5.8-5.3,7.3H79.2z M74.5,50.9c-9,0-10.9-6.5-10.9-11.4
			c0-6.1,3-11.2,10.2-11.2c8.8,0,10.1,7,10.1,10c0,0.4-0.2,0.9-1,0.9H68.4c-0.2,3.3,0.3,9.7,6.8,9.7c4,0,6.1-2.9,6.8-3.7
			c0.5-0.6,1.6-0.2,1.3,0.8C82.9,46.9,80.5,50.9,74.5,50.9z"/>
		<path class="st0" d="M141.7,37.5c-0.1-1.6-0.5-7.3-5.4-7.3c-4.8,0-5.1,5.8-5.3,7.3H141.7z M137,50.9c-9,0-10.9-6.5-10.9-11.4
			c0-6.1,3-11.2,10.2-11.2c8.8,0,10.1,7,10.1,10c0,0.4-0.2,0.9-1,0.9h-14.5c-0.2,3.3,0.3,9.7,6.8,9.7c4,0,6.1-2.9,6.8-3.7
			c0.5-0.6,1.6-0.2,1.3,0.8C145.4,46.9,143,50.9,137,50.9z"/>
		<path class="st0" d="M17.4,37.5c-0.1-1.6-0.5-7.3-5.4-7.3c-4.8,0-5.1,5.8-5.3,7.3H17.4z M12.7,50.9c-9,0-10.9-6.5-10.9-11.4
			c0-6.1,3-11.2,10.2-11.2c8.8,0,10.1,7,10.1,10c0,0.4-0.2,0.9-1,0.9H6.6C6.4,42.5,6.9,49,13.4,49c4,0,6.1-2.9,6.8-3.7
			c0.5-0.6,1.6-0.2,1.3,0.8C21.1,46.9,18.7,50.9,12.7,50.9z"/>
		<path class="st0" d="M91.5,49.7c0,0.5-0.2,1-1,1H88c-0.7,0-1-0.4-1-1L87,30c0-0.5,0.2-1,0.9-1h2.2c0.7,0,1,0.4,1,1
			c0,0.6,0,1.5,0,1.5h0.1c0.4-0.6,2.6-3.2,6.7-3.2c3.2,0,4.4,1.9,4.4,3.3c0,1.7-1,2.4-2.2,2.4c-1.4,0-2.1-0.7-2.1-2.2
			c0-1-0.6-1.6-1.6-1.6c-2.2,0-4.9,1.8-4.9,6.2C91.5,38.8,91.5,49.7,91.5,49.7z"/>
		<path class="st0" d="M154,49.7c0,0.5-0.2,1-1,1h-2.6c-0.7,0-1-0.4-1-1V30c0-0.5,0.2-1,1-1h2.2c0.7,0,1,0.4,1,1c0,0.6,0,1.5,0,1.5
			h0.1c0.2-0.3,2.1-3.2,6.9-3.2c5.8,0,8.6,3.8,8.6,8.1c0,1,0,13.2,0,13.2c0,0.5-0.2,1-0.9,1h-2.6c-0.7,0-1-0.4-1-1V36.7
			c0-4.1-2.2-6.4-5.3-6.4c-3.1,0-5.3,2.3-5.3,6.4C154,38.4,154,49.7,154,49.7z"/>
		<path class="st0" d="M29.3,30c0,0.6,0,1.5,0,1.5h0.1c0.2-0.3,2.1-3.2,7-3.2c5.8,0,7.5,3.6,7.7,4c0.2-0.4,2-4,7.5-4
			c5.6,0,8.8,3.8,8.8,8.1v13.2c0,0.5-0.2,1-1,1h-2.6c-0.7,0-1-0.4-1-1V36.8c0-4.1-2.2-6.4-5.4-6.4c-3.4,0-5.4,2.7-5.4,6.4
			c0,1,0,12.9,0,12.9c0,0.5-0.2,1-1,1h-2.6c-0.7,0-1-0.4-1-1V36.7c0-4.1-2.2-6.4-5.4-6.4c-3.1,0-5.4,2.5-5.4,6.4
			c0,1.7,0,12.9,0,12.9c0,0.5-0.2,1-1,1h-2.6c-0.7,0-1-0.4-1-1V30c0-0.5,0.2-1,1-1h2.2C29,29,29.3,29.4,29.3,30z"/>
		<g>
			<path class="st0" d="M170.1,29.9c0-0.4,0.3-0.7,0.7-0.7c2.8,0,4.7-1.6,5.4-6.1c0.1-0.4,0.3-0.8,1-0.8c0.7,0,1,0.3,1,0.8
				c0,0.6,0,5.8,0,5.8s5.2,0,5.5,0c0.6,0,0.7,0.4,0.7,0.8c0,0.4-0.2,0.8-0.7,0.8c-0.7,0-5.5,0-5.5,0v14.7c0,2.6,1.4,3.7,3.8,3.7
				c1.5,0,3-0.9,3.2-1.1c0.4-0.2,0.8-0.1,1,0.2c0.2,0.3,0.2,0.7-0.2,1c-0.3,0.2-2.3,1.8-6,1.8c-3.7,0-6.2-1.5-6.2-5.6V30.6
				c0,0-2.5,0-3,0C170.3,30.6,170.1,30.3,170.1,29.9z"/>
		</g>
		<path class="st0" d="M119.2,29.5l2.3-1.9c0.7-0.6,1.3-0.2,1.9,0.5c0.6,0.7,0.7,1.6-0.1,2l-1.9,0.8c0.1,0.1,2.1,1.8,2.1,5.2
			c0,5.2-4.5,7.9-9.8,7.9c-2.5,0-4-0.6-4.5-0.7c-0.6,0.3-2,0.9-2,2.3c0,1.3,1,2.2,3.3,2.2h5.9c7.3,0,9.3,3.2,9.3,6.3
			c0,4.3-4.4,7.8-12.6,7.8c-8.1,0-11.1-2.9-11.1-6.7c0-3.2,3.1-4.5,4.1-4.8c-0.5-0.2-2.4-1.1-2.4-3.7c0-2.5,2.8-3.8,3.9-4.1
			c-0.9-0.4-3.7-2.3-3.7-6.4c0-5,4.3-7.9,9.8-7.9C117,28.3,118.9,29.3,119.2,29.5z M111.2,51.5c0,0-0.9,0-1.4,0
			c-0.3,0.1-3.9,1.3-3.9,4.3c0,2.7,3.1,4.2,7.5,4.2c5.9,0,8.4-2.3,8.4-4.6c0-1.9-1.3-3.8-6.2-3.8H111.2z M113.7,42.2
			c3.4,0,5.4-2.3,5.4-6c0-3-1.8-6-5.4-6c-3.6,0-5.4,2.8-5.4,6C108.2,39.8,110.2,42.2,113.7,42.2z"/>
	</g>
	<g>
		<path class="st0" d="M119.6,68.1v-1h1v1H119.6z M119.7,78.1v-7.5h0.8v7.5H119.7z"/>
		<path class="st0" d="M73.2,68.1v-1h1v1H73.2z M73.3,78.1v-7.5h0.8v7.5H73.3z"/>
		<path class="st0" d="M103.1,78.1c-1.2,0-1.8-0.8-1.8-1.9v-9.1h0.8v9.1c0,0.8,0.3,1.3,1.1,1.3h0.5v0.7H103.1z"/>
		<path class="st0" d="M116.5,78.1c-1.2,0-1.8-0.8-1.8-1.9v-4.9h-1v-0.6h1v-2.4h0.8v2.4h1.7v0.6h-1.7v4.9c0,0.8,0.4,1.2,1.1,1.2h0.5
			v0.7H116.5z"/>
		<path class="st0" d="M95.8,78.2c-1.8,0-3-1.2-3-3.8c0-2.5,1.1-3.8,3-3.8c2.3,0,3,1.8,3,3.8C98.8,77.1,97.6,78.2,95.8,78.2z
			 M95.8,71.3c-1.1,0-2.2,0.6-2.2,3.1c0,2.1,0.8,3.1,2.2,3.1c1.5,0,2.2-1.2,2.2-3.1C98,72.6,97.4,71.3,95.8,71.3z"/>
		<path class="st0" d="M126.1,78.2c-1.8,0-3-1.2-3-3.8c0-2.5,1.1-3.8,3-3.8c2.3,0,3,1.8,3,3.8C129.1,77.1,127.8,78.2,126.1,78.2z
			 M126.1,71.3c-1.1,0-2.2,0.6-2.2,3.1c0,2.1,0.8,3.1,2.2,3.1c1.5,0,2.2-1.2,2.2-3.1C128.3,72.6,127.7,71.3,126.1,71.3z"/>
		<path class="st0" d="M79.7,78.2c-1.8,0-3-1.2-3-3.8c0-2.5,1.1-3.8,3-3.8c2.3,0,3,1.8,3,3.8C82.7,77.1,81.5,78.2,79.7,78.2z
			 M79.7,71.3c-1.1,0-2.2,0.6-2.2,3.1c0,2.1,0.8,3.1,2.2,3.1c1.5,0,2.2-1.2,2.2-3.1C81.9,72.6,81.3,71.3,79.7,71.3z"/>
		<path class="st0" d="M67.8,78.2c-0.8,0-1.6-0.2-2.2-1.1v1h-0.8v-11h0.8v4.5c0.2-0.2,0.8-1.1,2.2-1.1c2.1,0,2.8,1.7,2.8,3.8
			C70.6,76.7,69.8,78.2,67.8,78.2z M67.7,71.3c-1.8,0-2.1,1.6-2.1,3.1c0,1.5,0.3,3.1,2.1,3.1c1.8,0,2.1-1.6,2.1-3.1
			C69.8,72.9,69.5,71.3,67.7,71.3z"/>
		<path class="st0" d="M142.8,78.2c-2,0-2.8-0.8-3-1.1l0.5-0.5c0.2,0.2,0.9,0.9,2.4,0.9c1.5,0,2.2-0.6,2.2-1.4
			c0-0.9-0.8-1.3-1.9-1.4l-0.8-0.1c-1.5-0.2-2.2-0.8-2.2-2c0-1.2,1-2.1,2.7-2.1c1.5,0,2.3,0.6,2.5,0.7l-0.4,0.6
			c-0.2-0.1-0.9-0.6-2.1-0.6c-1.2,0-1.9,0.5-1.9,1.3c0,0.8,0.5,1.2,1.6,1.3l0.7,0.1c1.8,0.2,2.6,0.9,2.6,2.2
			C145.8,77.5,144.5,78.2,142.8,78.2z"/>
		<path class="st0" d="M87.7,78.2c-2,0-2.8-0.8-3-1.1l0.5-0.5c0.2,0.2,0.9,0.9,2.4,0.9c1.5,0,2.2-0.6,2.2-1.4c0-0.9-0.8-1.3-1.9-1.4
			l-0.8-0.1c-1.5-0.2-2.2-0.8-2.2-2c0-1.2,1-2.1,2.7-2.1c1.5,0,2.3,0.6,2.5,0.7l-0.4,0.6c-0.2-0.1-0.9-0.6-2.1-0.6
			c-1.2,0-1.9,0.5-1.9,1.3c0,0.8,0.5,1.2,1.6,1.3L88,74c1.8,0.2,2.6,0.9,2.6,2.2C90.6,77.5,89.4,78.2,87.7,78.2z"/>
		<path class="st0" d="M110.7,78.1v-0.9c-0.6,0.6-1.3,1-2.2,1c-1.9,0-2.8-1.2-2.8-2.8v-4.8h0.8v4.6c0,1.4,0.7,2.2,2.1,2.2
			c1.3,0,2.1-0.8,2.1-2.2v-4.6h0.8v7.5H110.7z"/>
		<path class="st0" d="M136.7,78.1v-4.6c0-1.4-0.7-2.2-2.1-2.2c-1.3,0-2.1,0.8-2.1,2.2v4.6h-0.8v-7.5h0.8v0.9c0.6-0.7,1.3-1,2.2-1
			c1.9,0,2.8,1.2,2.8,2.8v4.8H136.7z"/>
		<g>
			<path class="st0" d="M149.3,74.9c-1.2,0-2.1-1-2.1-2.1c0-1.2,1-2.1,2.1-2.1c1.2,0,2.1,1,2.1,2.1
				C151.4,73.9,150.4,74.9,149.3,74.9z M149.3,71c-1,0-1.7,0.8-1.7,1.8s0.8,1.8,1.7,1.8c1,0,1.8-0.8,1.8-1.8S150.2,71,149.3,71z
				 M150.2,73.9h-0.4l0,0l-0.5-0.9h-0.3v0.9h-0.4v-2.4h0.8c0.4,0,0.8,0.3,0.8,0.7c0,0.3-0.2,0.5-0.5,0.6L150.2,73.9z M148.9,72.6
				h0.4c0.2,0,0.4-0.2,0.4-0.4c0-0.2-0.2-0.4-0.4-0.4h-0.4V72.6z"/>
		</g>
	</g>
</g>
</svg>
